<svg width="24" height="24" xmlns="http://www.w3.org/2000/svg">

 <g>
  <title>background</title>
  <rect fill="#000" id="canvas_background" height="26" width="26"/>
 </g>
 <g>
  <title>Layer 1</title>
  <path stroke="null" fill="#f7e018" id="svg_1" d="m-3.421881,-3.511354l29.493737,0l0,29.493737l-29.493737,0l0,-29.493737m7.750299,24.643656c0.655416,1.39276 1.949864,2.539738 4.161894,2.539738c2.457811,0 4.145509,-1.310833 4.145509,-4.178279l0,-9.470767l-2.78552,0l0,9.405225c0,1.409145 -0.573489,1.769624 -1.474687,1.769624c-0.950354,0 -1.343604,-0.655416 -1.78601,-1.425531l-2.261186,1.359989m9.798475,-0.294937c0.81927,1.60577 2.474197,2.834676 5.063091,2.834676c2.621665,0 4.587915,-1.359989 4.587915,-3.866957c0,-2.310343 -1.327218,-3.342624 -3.686717,-4.358519l-0.688187,-0.294937c-1.196135,-0.507948 -1.704083,-0.852041 -1.704083,-1.671312c0,-0.671802 0.507948,-1.196135 1.327218,-1.196135c0.7865,0 1.310833,0.344094 1.78601,1.196135l2.146489,-1.425531c-0.901198,-1.572999 -2.179259,-2.179259 -3.932498,-2.179259c-2.474197,0 -4.063582,1.572999 -4.063582,3.653946c0,2.261186 1.327218,3.326238 3.326238,4.178279l0.688187,0.294937c1.278062,0.557104 2.031791,0.901198 2.031791,1.851551c0,0.7865 -0.737343,1.359989 -1.884322,1.359989c-1.359989,0 -2.146489,-0.704573 -2.736363,-1.687697l-2.261186,1.310833z"/>
 </g>
</svg>